<svg xmlns="http://www.w3.org/2000/svg" fill="none" viewBox="-0.5 -0.5 14 14" height="14" width="14"><g id="pen-1--content-creation-edit-pen-write"><path id="Intersect" fill="#ffffff" d="M10.780714285714286 5.575142857142857 7.463857142857143 2.2582857142857145c0.2692857142857143 -0.2507142857142857 0.5385714285714286 -0.4977142857142858 0.8050714285714285 -0.7410000000000001C9.231857142857143 0.6388571428571428 10.725000000000001 0.47171428571428575 11.646142857142857 1.3928571428571428c0.9220714285714285 0.9220714285714285 0.7540000000000001 2.4142857142857146 -0.12442857142857144 3.377214285714286 -0.2432857142857143 0.2665 -0.4902857142857143 0.5357857142857143 -0.7410000000000001 0.8050714285714285Z" stroke-width="1"></path><path id="Subtract" fill="#d7e0ff" d="m10.765857142857143 5.561214285714286 -3.2871428571428574 -3.2880714285714285a76.80028571428572 76.80028571428572 0 0 0 -1.9546428571428571 1.876642857142857C4.487785714285715 5.187 3.5192857142857146 6.24 2.582357142857143 7.255857142857143l-0.19685714285714287 0.21357142857142858c-0.5636428571428571 0.6128571428571429 -0.7103571428571429 1.5525714285714285 -0.28135714285714286 2.2657142857142856 0.14857142857142858 0.24607142857142858 0.3138571428571429 0.4800714285714286 0.5172142857142857 0.6834285714285714 0.20242857142857143 0.20242857142857143 0.43642857142857144 0.36864285714285716 0.6834285714285714 0.5162857142857143 0.7122142857142858 0.42992857142857144 1.652857142857143 0.2822857142857143 2.2647857142857144 -0.2804285714285714l0.21357142857142858 -0.1977857142857143c1.0167857142857144 -0.936 2.0697857142857146 -1.9054285714285715 3.106071428571429 -2.941714285714286 0.65 -0.65 1.2721428571428572 -1.3055714285714286 1.876642857142857 -1.953714285714286Z" stroke-width="1"></path><path id="Subtract_2" stroke="#4147d5" stroke-linecap="round" stroke-linejoin="round" d="m10.765857142857143 5.5602857142857145 -3.2871428571428574 -3.2871428571428574a76.81700000000001 76.81700000000001 0 0 0 -1.9546428571428571 1.876642857142857C4.487785714285715 5.186071428571429 3.5192857142857146 6.24 2.582357142857143 7.254928571428572c-0.065 0.07242857142857143 -0.13185714285714284 0.14392857142857143 -0.19685714285714287 0.21450000000000002 -0.5636428571428571 0.6128571428571429 -0.7103571428571429 1.5525714285714285 -0.28135714285714286 2.2657142857142856 0.14857142857142858 0.24514285714285716 0.3138571428571429 0.4800714285714286 0.5172142857142857 0.6825a3.5285714285714285 3.5285714285714285 0 0 0 0.6834285714285714 0.5181428571428572c0.7122142857142858 0.4280714285714286 1.652857142857143 0.28135714285714286 2.2647857142857144 -0.28135714285714286l0.21357142857142858 -0.1977857142857143c1.0167857142857144 -0.936 2.0697857142857146 -1.9054285714285715 3.106071428571429 -2.941714285714286 0.65 -0.65 1.2721428571428572 -1.3055714285714286 1.876642857142857 -1.9546428571428571Z" stroke-width="1"></path><path id="Vector 164" stroke="#4147d5" stroke-linecap="round" stroke-linejoin="round" d="M2.3864285714285716 10.500285714285715 0.7846428571428572 12.099285714285713" stroke-width="1"></path><path id="Vector 165" stroke="#4147d5" stroke-linecap="round" stroke-linejoin="round" d="M2.612071428571429 3.1831428571428573 4.280714285714287 1.6175714285714287a1.8571428571428572 1.8571428571428572 0 0 1 2.583285714285714 0.04178571428571429l0.6416428571428571 0.6416428571428571" stroke-width="1"></path><path id="Intersect_2" stroke="#4147d5" stroke-linecap="round" stroke-linejoin="round" d="M10.780714285714286 5.575142857142857 7.463857142857143 2.2582857142857145c0.2692857142857143 -0.2507142857142857 0.5385714285714286 -0.4977142857142858 0.8050714285714285 -0.7410000000000001C9.231857142857143 0.6388571428571428 10.725000000000001 0.47171428571428575 11.646142857142857 1.3928571428571428c0.9220714285714285 0.9220714285714285 0.7540000000000001 2.4142857142857146 -0.12442857142857144 3.377214285714286 -0.2432857142857143 0.2665 -0.4902857142857143 0.5357857142857143 -0.7410000000000001 0.8050714285714285Z" stroke-width="1"></path></g></svg>